# xmcd CD database file
# Copyright (C) 1995 Ti Kan
#
# Track frame offsets:
#	150
#	23177
#	36430
#	67415
#	83460
#	102610
#	123085
#	133500
#	152575
#	171030
#	195225
#	207425
#	231425
#	248925
#	267725
#	283300
#
# Disc length: 3970 seconds
#
# Revision: 1
# Processed by: cddbd v1.4b42PL1 Copyright (c) Steve Scherf et al.
# Submitted via: NotifyCDPlayer(CDDB) 1.60beta5_freedb
#
DISCID=ee0f8010
DTITLE=Various Artist - Billiger als Turnschuhe - der l'age d'or Sampler
DYEAR=1900
DGENRE=
TTITLE0=Ostzonensuppenbrühwürfelmachenkrebs/Blindfeind Blues
TTITLE1=Hallelujah Ding Dong Happy Happy!/So nice
TTITLE2=Kissin Cousins/Kommen, komm (samtiger)
TTITLE3=Carnival of Souls/Paradise Lounge
TTITLE4=Huah!/Der Krieg-Song
TTITLE5=Die Regierung/Corinna
TTITLE6=Vincent's Price/Zu kurz
TTITLE7=Der Schwarze Kanal/Shout
TTITLE8=Die Sterne/Jetzt nicht
TTITLE9=Mastino/Das gläserne Interview
TTITLE10=Kolosale Jugend/Von hier zur Wand
TTITLE11=We smile/Can't resist
TTITLE12=Die-Gants/Leathern
TTITLE13=Maische/This is your birthday
TTITLE14=M:B.F.A. featuring Das Neue Brot/Mimikry-Fleisch
TTITLE15=Wendelin/Anesthesia (betäubt)
EXTD=
EXTT0=
EXTT1=
EXTT2=
EXTT3=
EXTT4=
EXTT5=
EXTT6=
EXTT7=
EXTT8=
EXTT9=
EXTT10=
EXTT11=
EXTT12=
EXTT13=
EXTT14=
EXTT15=
PLAYORDER=
